<?xml version="1.0" standalone="no"?><!DOCTYPE svg PUBLIC "-//W3C//DTD SVG 1.1//EN" "http://www.w3.org/Graphics/SVG/1.1/DTD/svg11.dtd"><svg t="1675852977866" class="icon" viewBox="0 0 1024 1024" version="1.1" xmlns="http://www.w3.org/2000/svg" p-id="2823" xmlns:xlink="http://www.w3.org/1999/xlink" width="200" height="200"><path d="M506.88-0.046548m72.407734 72.407734l362.038672 362.038672q72.407734 72.407734 0 144.815469l-362.038672 362.038672q-72.407734 72.407734-144.815468 0l-362.038672-362.038672q-72.407734-72.407734 0-144.815469l362.038672-362.038672q72.407734-72.407734 144.815468 0Z" fill="#F5A623" p-id="2824"></path><path d="M671.0272 412.8768c144.6912 141.312 217.088 212.736 217.2928 214.3232-65.7408 73.3696-142.336 150.272-229.7344 230.7072l-70.9632-77.1584L460.8 445.44l210.2272-32.512z" fill="#ED9300" p-id="2825"></path><path d="M741.5296 506.7264C741.0176 505.2416 688.64 358.4 512 358.4 335.36 358.4 283.0336 505.2416 282.4704 506.7264a16.2816 16.2816 0 0 0 0 10.5472C282.9824 518.7584 335.36 665.6 512 665.6c176.64 0 228.9664-146.8416 229.5296-148.3264a16.2816 16.2816 0 0 0 0-10.5472" fill="#FFFFFF" p-id="2826"></path><path d="M512 512m-102.4 0a102.4 102.4 0 1 0 204.8 0 102.4 102.4 0 1 0-204.8 0Z" fill="#F5A623" p-id="2827"></path></svg>